<svg xmlns="http://www.w3.org/2000/svg" viewBox="0 0 264 264">
    <circle cx="132" cy="132" r="132" fill="#fcdb00" />
    <g fill="none" stroke="#222222" stroke-linecap="round" stroke-width="14">
        <path d="M40.91 162.7c-3.18-9.55-4.9-19.76-4.9-30.37 0-9.41 1.35-18.5 3.88-27.09l1.42-4.53 2.14-5.57 2.2-4.79c15.43-31.68 47.78-53.61 85.28-54.02h4.18l3.92.19 3.5.42 4.35.54c45.07 7.02 79.81 45.4 81.12 92.11" class="cls-2" />
        <path d="M120.85 227.67c1.35-2.9 2.89-6.44 4.45-10.54.35-.91 1.24-3.62 1.58-4.58l4.15-13.59c.99-3.95 1.87-8.11 2.58-12.46 4.66-28.83-1.6-54.17-1.6-54.17" class="cls-2" />
        <path d="M195.82 204.02c.57-3.32 1.09-6.76 1.53-10.28 4.66-36.94-2.06-71.05-2.06-71.05-3.04-20.08-15.4-37.11-32.54-46.51l-4.31-2.07-5.7-2.27-4.81-1.51c-5.09-1.3-10.43-2-15.92-2-35.35 0-64 28.65-64 64 0 3.32.25 6.57.74 9.76 1.52 8.36 3.5 22.55.86 36.91-1.39 7.57-3.91 14.34-6.69 20.03" class="cls-2" />
        <path d="M89.45 218.43c4.76-9.08 9.68-20.98 11.76-34.1 3.13-19.79.78-37.51-.7-46.25-.36-1.91-.5-3.73-.5-5.75 0-8.08 3-15.46 7.93-21.09l2.75-2.57s2.53-1.84 3.39-2.44 3.33-2.26 3.33-2.26l3.59-1.7c3.43-1.26 7.14-1.95 11.01-1.95 15.45 0 28.34 10.85 31.34 25.41 1.71 8.19 5.79 31.74 2.88 58.05-1.85 16.7-5.83 31.16-9.28 41.32" class="cls-2" />
    </g>
</svg>