<svg xmlns="http://www.w3.org/2000/svg">
    <symbol id="icon-arrow-down" viewBox="0 0 384 512">
        <path d="M169.4 502.6c12.5 12.5 32.8 12.5 45.3 0l128-128c12.5-12.5 12.5-32.8 0-45.3s-32.8-12.5-45.3 0L224 402.7 224 32c0-17.7-14.3-32-32-32s-32 14.3-32 32l0 370.7L86.6 329.4c-12.5-12.5-32.8-12.5-45.3 0s-12.5 32.8 0 45.3l128 128z"/>
    </symbol>
    <symbol id="icon-bookmark" viewBox="0 0 384 512">
        <path d="M0 48C0 21.5 21.5 0 48 0l0 48V441.4l130.1-92.9c8.3-6 19.6-6 27.9 0L336 441.4V48H48V0H336c26.5 0 48 21.5 48 48V488c0 9-5 17.2-13 21.3s-17.6 3.4-24.9-1.8L192 397.5 37.9 507.5c-7.3 5.2-16.9 5.9-24.9 1.8S0 497 0 488V48z"/>
    </symbol>
    <symbol id="icon-code" viewBox="0 0 640 512">
        <path d="M392.8 1.2c-17-4.9-34.7 5-39.6 22l-128 448c-4.9 17 5 34.7 22 39.6s34.7-5 39.6-22l128-448c4.9-17-5-34.7-22-39.6zm80.6 120.1c-12.5 12.5-12.5 32.8 0 45.3L562.7 256l-89.4 89.4c-12.5 12.5-12.5 32.8 0 45.3s32.8 12.5 45.3 0l112-112c12.5-12.5 12.5-32.8 0-45.3l-112-112c-12.5-12.5-32.8-12.5-45.3 0zm-306.7 0c-12.5-12.5-32.8-12.5-45.3 0l-112 112c-12.5 12.5-12.5 32.8 0 45.3l112 112c12.5 12.5 32.8 12.5 45.3 0s12.5-32.8 0-45.3L77.3 256l89.4-89.4c12.5-12.5 12.5-32.8 0-45.3z"/>
    </symbol>
    <symbol id="icon-desktop" viewBox="0 0 576 512">
        <path d="M64 0C28.7 0 0 28.7 0 64V352c0 35.3 28.7 64 64 64H240l-10.7 32H160c-17.7 0-32 14.3-32 32s14.3 32 32 32H416c17.7 0 32-14.3 32-32s-14.3-32-32-32H346.7L336 416H512c35.3 0 64-28.7 64-64V64c0-35.3-28.7-64-64-64H64zM512 64V288H64V64H512z"/>
    </symbol>
    <symbol id="icon-envelope" viewBox="0 0 512 512">
        <path d="M64 112c-8.8 0-16 7.2-16 16v22.1L220.5 291.7c20.7 17 50.4 17 71.1 0L464 150.1V128c0-8.8-7.2-16-16-16H64zM48 212.2V384c0 8.8 7.2 16 16 16H448c8.8 0 16-7.2 16-16V212.2L322 328.8c-38.4 31.5-93.7 31.5-132 0L48 212.2zM0 128C0 92.7 28.7 64 64 64H448c35.3 0 64 28.7 64 64V384c0 35.3-28.7 64-64 64H64c-35.3 0-64-28.7-64-64V128z"/>
    </symbol>
    <symbol id="icon-folder" viewBox="0 0 512 512">
        <path d="M0 96C0 60.7 28.7 32 64 32H196.1c19.1 0 37.4 7.6 50.9 21.1L289.9 96H448c35.3 0 64 28.7 64 64V416c0 35.3-28.7 64-64 64H64c-35.3 0-64-28.7-64-64V96zM64 80c-8.8 0-16 7.2-16 16V416c0 8.8 7.2 16 16 16H448c8.8 0 16-7.2 16-16V160c0-8.8-7.2-16-16-16H286.6c-10.6 0-20.8-4.2-28.3-11.7L213.1 87c-4.5-4.5-10.6-7-17-7H64z"/>
    </symbol>
    <symbol id="icon-laptop" viewBox="0 0 640 512">
        <path d="M128 32C92.7 32 64 60.7 64 96V352h64V96H512V352h64V96c0-35.3-28.7-64-64-64H128zM19.2 384C8.6 384 0 392.6 0 403.2C0 445.6 34.4 480 76.8 480H563.2c42.4 0 76.8-34.4 76.8-76.8c0-10.6-8.6-19.2-19.2-19.2H19.2z"/>
    </symbol>
    <symbol id="icon-layer-group" viewBox="0 0 576 512">
        <path d="M288 0c-8.5 0-17 1.7-24.8 5.1L53.9 94.8C40.6 100.5 32 113.5 32 128s8.6 27.5 21.9 33.2l209.3 89.7c7.8 3.4 16.3 5.1 24.8 5.1s17-1.7 24.8-5.1l209.3-89.7c13.3-5.7 21.9-18.8 21.9-33.2s-8.6-27.5-21.9-33.2L312.8 5.1C305 1.7 296.5 0 288 0zm-5.9 49.2c1.9-.8 3.9-1.2 5.9-1.2s4 .4 5.9 1.2L477.7 128l-183.8 78.8c-1.9.8-3.9 1.2-5.9 1.2s-4-.4-5.9-1.2L98.3 128l183.8-78.8zM53.9 222.8C40.6 228.5 32 241.5 32 256s8.6 27.5 21.9 33.2l209.3 89.7c7.8 3.4 16.3 5.1 24.8 5.1s17-1.7 24.8-5.1l209.3-89.7c13.3-5.7 21.9-18.8 21.9-33.2s-8.6-27.5-21.9-33.2l-31.2-13.4-60.9 26.1 47.7 20.5-183.8 78.8c-1.9.8-3.9 1.2-5.9 1.2s-4-.4-5.9-1.2L98.3 256l47.7-20.5-60.9-26.1-31.2 13.4zm0 128C40.6 356.5 32 369.5 32 384s8.6 27.5 21.9 33.2l209.3 89.7c7.8 3.4 16.3 5.1 24.8 5.1s17-1.7 24.8-5.1l209.3-89.7c13.3-5.7 21.9-18.8 21.9-33.2s-8.6-27.5-21.9-33.2l-31.2-13.4-60.9 26.1 47.7 20.5-183.8 78.8c-1.9.8-3.9 1.2-5.9 1.2s-4-.4-5.9-1.2L98.3 384l47.7-20.5-60.9-26.1-31.2 13.4z" />
    </symbol>
    <symbol id="icon-tablet" viewBox="0 0 448 512">
        <path d="M0 64C0 28.7 28.7 0 64 0H384c35.3 0 64 28.7 64 64V448c0 35.3-28.7 64-64 64H64c-35.3 0-64-28.7-64-64V64zM256 448a32 32 0 1 0 -64 0 32 32 0 1 0 64 0zM384 64H64V384H384V64z"/>
    </symbol>
</svg>