<svg xmlns="http://www.w3.org/2000/svg">
    <symbol id="icon-arrow-down" viewBox="0 0 384 512">
        <path d="M169.4 502.6c12.5 12.5 32.8 12.5 45.3 0l128-128c12.5-12.5 12.5-32.8 0-45.3s-32.8-12.5-45.3 0L224 402.7 224 32c0-17.7-14.3-32-32-32s-32 14.3-32 32l0 370.7L86.6 329.4c-12.5-12.5-32.8-12.5-45.3 0s-12.5 32.8 0 45.3l128 128z"/>
    </symbol>
    <symbol id="icon-bookmark" viewBox="0 0 384 512">
        <path d="M0 48C0 21.5 21.5 0 48 0l0 48V441.4l130.1-92.9c8.3-6 19.6-6 27.9 0L336 441.4V48H48V0H336c26.5 0 48 21.5 48 48V488c0 9-5 17.2-13 21.3s-17.6 3.4-24.9-1.8L192 397.5 37.9 507.5c-7.3 5.2-16.9 5.9-24.9 1.8S0 497 0 488V48z"/>
    </symbol>
    <symbol id="icon-cloud-arrow-down" viewBox="0 0 640 512">
        <path d="M144 480C64.5 480 0 415.5 0 336c0-62.8 40.2-116.2 96.2-135.9c-.1-2.7-.2-5.4-.2-8.1c0-88.4 71.6-160 160-160c59.3 0 111 32.2 138.7 80.2C409.9 102 428.3 96 448 96c53 0 96 43 96 96c0 12.2-2.3 23.8-6.4 34.6C596 238.4 640 290.1 640 352c0 70.7-57.3 128-128 128H144zm79-167l80 80c9.4 9.4 24.6 9.4 33.9 0l80-80c9.4-9.4 9.4-24.6 0-33.9s-24.6-9.4-33.9 0l-39 39V184c0-13.3-10.7-24-24-24s-24 10.7-24 24V318.1l-39-39c-9.4-9.4-24.6-9.4-33.9 0s-9.4 24.6 0 33.9z" />
    </symbol>
    <symbol id="icon-code" viewBox="0 0 640 512">
        <path d="M392.8 1.2c-17-4.9-34.7 5-39.6 22l-128 448c-4.9 17 5 34.7 22 39.6s34.7-5 39.6-22l128-448c4.9-17-5-34.7-22-39.6zm80.6 120.1c-12.5 12.5-12.5 32.8 0 45.3L562.7 256l-89.4 89.4c-12.5 12.5-12.5 32.8 0 45.3s32.8 12.5 45.3 0l112-112c12.5-12.5 12.5-32.8 0-45.3l-112-112c-12.5-12.5-32.8-12.5-45.3 0zm-306.7 0c-12.5-12.5-32.8-12.5-45.3 0l-112 112c-12.5 12.5-12.5 32.8 0 45.3l112 112c12.5 12.5 32.8 12.5 45.3 0s12.5-32.8 0-45.3L77.3 256l89.4-89.4c12.5-12.5 12.5-32.8 0-45.3z"/>
    </symbol>
    <symbol id="icon-desktop" viewBox="0 0 576 512">
        <path d="M64 0C28.7 0 0 28.7 0 64V352c0 35.3 28.7 64 64 64H240l-10.7 32H160c-17.7 0-32 14.3-32 32s14.3 32 32 32H416c17.7 0 32-14.3 32-32s-14.3-32-32-32H346.7L336 416H512c35.3 0 64-28.7 64-64V64c0-35.3-28.7-64-64-64H64zM512 64V288H64V64H512z"/>
    </symbol>
    <symbol id="icon-envelope-solid" viewBox="0 0 512 512">
        <path d="M48 64C21.5 64 0 85.5 0 112c0 15.1 7.1 29.3 19.2 38.4L236.8 313.6c11.4 8.5 27 8.5 38.4 0L492.8 150.4c12.1-9.1 19.2-23.3 19.2-38.4c0-26.5-21.5-48-48-48H48zM0 176V384c0 35.3 28.7 64 64 64H448c35.3 0 64-28.7 64-64V176L294.4 339.2c-22.8 17.1-54 17.1-76.8 0L0 176z" />
    </symbol>
    <symbol id="icon-envelope" viewBox="0 0 512 512">
        <path d="M64 112c-8.8 0-16 7.2-16 16v22.1L220.5 291.7c20.7 17 50.4 17 71.1 0L464 150.1V128c0-8.8-7.2-16-16-16H64zM48 212.2V384c0 8.8 7.2 16 16 16H448c8.8 0 16-7.2 16-16V212.2L322 328.8c-38.4 31.5-93.7 31.5-132 0L48 212.2zM0 128C0 92.7 28.7 64 64 64H448c35.3 0 64 28.7 64 64V384c0 35.3-28.7 64-64 64H64c-35.3 0-64-28.7-64-64V128z"/>
    </symbol>
    <symbol id="icon-facebook" viewBox="0 0 512 512">
        <path d="M512 256C512 114.6 397.4 0 256 0S0 114.6 0 256C0 376 82.7 476.8 194.2 504.5V334.2H141.4V256h52.8V222.3c0-87.1 39.4-127.5 125-127.5c16.2 0 44.2 3.2 55.7 6.4V172c-6-.6-16.5-1-29.6-1c-42 0-58.2 15.9-58.2 57.2V256h83.6l-14.4 78.2H287V510.1C413.8 494.8 512 386.9 512 256h0z" />
    </symbol>
    <symbol id="icon-folder" viewBox="0 0 512 512">
        <path d="M0 96C0 60.7 28.7 32 64 32H196.1c19.1 0 37.4 7.6 50.9 21.1L289.9 96H448c35.3 0 64 28.7 64 64V416c0 35.3-28.7 64-64 64H64c-35.3 0-64-28.7-64-64V96zM64 80c-8.8 0-16 7.2-16 16V416c0 8.8 7.2 16 16 16H448c8.8 0 16-7.2 16-16V160c0-8.8-7.2-16-16-16H286.6c-10.6 0-20.8-4.2-28.3-11.7L213.1 87c-4.5-4.5-10.6-7-17-7H64z"/>
    </symbol>
    <symbol id="icon-laptop" viewBox="0 0 640 512">
        <path d="M128 32C92.7 32 64 60.7 64 96V352h64V96H512V352h64V96c0-35.3-28.7-64-64-64H128zM19.2 384C8.6 384 0 392.6 0 403.2C0 445.6 34.4 480 76.8 480H563.2c42.4 0 76.8-34.4 76.8-76.8c0-10.6-8.6-19.2-19.2-19.2H19.2z"/>
    </symbol>
    <symbol id="icon-layer-group" viewBox="0 0 576 512">
        <path d="M288 0c-8.5 0-17 1.7-24.8 5.1L53.9 94.8C40.6 100.5 32 113.5 32 128s8.6 27.5 21.9 33.2l209.3 89.7c7.8 3.4 16.3 5.1 24.8 5.1s17-1.7 24.8-5.1l209.3-89.7c13.3-5.7 21.9-18.8 21.9-33.2s-8.6-27.5-21.9-33.2L312.8 5.1C305 1.7 296.5 0 288 0zm-5.9 49.2c1.9-.8 3.9-1.2 5.9-1.2s4 .4 5.9 1.2L477.7 128l-183.8 78.8c-1.9.8-3.9 1.2-5.9 1.2s-4-.4-5.9-1.2L98.3 128l183.8-78.8zM53.9 222.8C40.6 228.5 32 241.5 32 256s8.6 27.5 21.9 33.2l209.3 89.7c7.8 3.4 16.3 5.1 24.8 5.1s17-1.7 24.8-5.1l209.3-89.7c13.3-5.7 21.9-18.8 21.9-33.2s-8.6-27.5-21.9-33.2l-31.2-13.4-60.9 26.1 47.7 20.5-183.8 78.8c-1.9.8-3.9 1.2-5.9 1.2s-4-.4-5.9-1.2L98.3 256l47.7-20.5-60.9-26.1-31.2 13.4zm0 128C40.6 356.5 32 369.5 32 384s8.6 27.5 21.9 33.2l209.3 89.7c7.8 3.4 16.3 5.1 24.8 5.1s17-1.7 24.8-5.1l209.3-89.7c13.3-5.7 21.9-18.8 21.9-33.2s-8.6-27.5-21.9-33.2l-31.2-13.4-60.9 26.1 47.7 20.5-183.8 78.8c-1.9.8-3.9 1.2-5.9 1.2s-4-.4-5.9-1.2L98.3 384l47.7-20.5-60.9-26.1-31.2 13.4z" />
    </symbol>
    <symbol id="icon-location-dot-solid" viewBox="0 0 384 512">
        <path d="M215.7 499.2C267 435 384 279.4 384 192C384 86 298 0 192 0S0 86 0 192c0 87.4 117 243 168.3 307.2c12.3 15.3 35.1 15.3 47.4 0zM192 128a64 64 0 1 1 0 128 64 64 0 1 1 0-128z" />
    </symbol>
    <symbol id="icon-menu" viewBox="0 0 448 512">
        <path d="M0 100c0-19.91 14.3-36 32-36h384c17.7 0 32 16.09 32 36s-14.3 36-32 36H32c-17.7 0-32-16.09-32-36Zm0 156c0-19.91 14.3-36 32-36h384c17.7 0 32 16.09 32 36s-14.3 36-32 36H32c-17.7 0-32-16.09-32-36Zm448 156c0 19.91-14.3 36-32 36H32c-17.7 0-32-16.09-32-36s14.3-36 32-36h384c17.7 0 32 16.09 32 36Z" />
    </symbol>
    <symbol id="icon-phone-solid" viewBox="0 0 512 512">
        <path d="M164.9 24.6c-7.7-18.6-28-28.5-47.4-23.2l-88 24C12.1 30.2 0 46 0 64C0 311.4 200.6 512 448 512c18 0 33.8-12.1 38.6-29.5l24-88c5.3-19.4-4.6-39.7-23.2-47.4l-96-40c-16.3-6.8-35.2-2.1-46.3 11.6L304.7 368C234.3 334.7 177.3 277.7 144 207.3L193.3 167c13.7-11.2 18.4-30 11.6-46.3l-40-96z" />
    </symbol>
    <symbol id="icon-pinterest" viewBox="0 0 496 512">
        <path d="M496 256c0 137-111 248-248 248-25.6 0-50.2-3.9-73.4-11.1 10.1-16.5 25.2-43.5 30.8-65 3-11.6 15.4-59 15.4-59 8.1 15.4 31.7 28.5 56.8 28.5 74.8 0 128.7-68.8 128.7-154.3 0-81.9-66.9-143.2-152.9-143.2-107 0-163.9 71.8-163.9 150.1 0 36.4 19.4 81.7 50.3 96.1 4.7 2.2 7.2 1.2 8.3-3.3 .8-3.4 5-20.3 6.9-28.1 .6-2.5 .3-4.7-1.7-7.1-10.1-12.5-18.3-35.3-18.3-56.6 0-54.7 41.4-107.6 112-107.6 60.9 0 103.6 41.5 103.6 100.9 0 67.1-33.9 113.6-78 113.6-24.3 0-42.6-20.1-36.7-44.8 7-29.5 20.5-61.3 20.5-82.6 0-19-10.2-34.9-31.4-34.9-24.9 0-44.9 25.7-44.9 60.2 0 22 7.4 36.8 7.4 36.8s-24.5 103.8-29 123.2c-5 21.4-3 51.6-.9 71.2C65.4 450.9 0 361.1 0 256 0 119 111 8 248 8s248 111 248 248z" />
    </symbol>
    <symbol id="icon-puzzle-piece" viewBox="0 0 512 512">
        <path d="M192 104.8c0-9.2-5.8-17.3-13.2-22.8C167.2 73.3 160 61.3 160 48c0-26.5 28.7-48 64-48s64 21.5 64 48c0 13.3-7.2 25.3-18.8 34c-7.4 5.5-13.2 13.6-13.2 22.8c0 12.8 10.4 23.2 23.2 23.2H336c26.5 0 48 21.5 48 48v56.8c0 12.8 10.4 23.2 23.2 23.2c9.2 0 17.3-5.8 22.8-13.2c8.7-11.6 20.7-18.8 34-18.8c26.5 0 48 28.7 48 64s-21.5 64-48 64c-13.3 0-25.3-7.2-34-18.8c-5.5-7.4-13.6-13.2-22.8-13.2c-12.8 0-23.2 10.4-23.2 23.2V464c0 26.5-21.5 48-48 48H279.2c-12.8 0-23.2-10.4-23.2-23.2c0-9.2 5.8-17.3 13.2-22.8c11.6-8.7 18.8-20.7 18.8-34c0-26.5-28.7-48-64-48s-64 21.5-64 48c0 13.3 7.2 25.3 18.8 34c7.4 5.5 13.2 13.6 13.2 22.8c0 12.8-10.4 23.2-23.2 23.2H48c-26.5 0-48-21.5-48-48V343.2C0 330.4 10.4 320 23.2 320c9.2 0 17.3 5.8 22.8 13.2C54.7 344.8 66.7 352 80 352c26.5 0 48-28.7 48-64s-21.5-64-48-64c-13.3 0-25.3 7.2-34 18.8C40.5 250.2 32.4 256 23.2 256C10.4 256 0 245.6 0 232.8V176c0-26.5 21.5-48 48-48H168.8c12.8 0 23.2-10.4 23.2-23.2z" />
    </symbol>
    <symbol id="icon-tablet" viewBox="0 0 448 512">
        <path d="M0 64C0 28.7 28.7 0 64 0H384c35.3 0 64 28.7 64 64V448c0 35.3-28.7 64-64 64H64c-35.3 0-64-28.7-64-64V64zM256 448a32 32 0 1 0 -64 0 32 32 0 1 0 64 0zM384 64H64V384H384V64z"/>
    </symbol>
    <symbol id="icon-thumbs-up" viewBox="0 0 512 512">
        <path d="M313.4 32.9c26 5.2 42.9 30.5 37.7 56.5l-2.3 11.4c-5.3 26.7-15.1 52.1-28.8 75.2H464c26.5 0 48 21.5 48 48c0 18.5-10.5 34.6-25.9 42.6C497 275.4 504 288.9 504 304c0 23.4-16.8 42.9-38.9 47.1c4.4 7.3 6.9 15.8 6.9 24.9c0 21.3-13.9 39.4-33.1 45.6c.7 3.3 1.1 6.8 1.1 10.4c0 26.5-21.5 48-48 48H294.5c-19 0-37.5-5.6-53.3-16.1l-38.5-25.7C176 420.4 160 390.4 160 358.3V320 272 247.1c0-29.2 13.3-56.7 36-75l7.4-5.9c26.5-21.2 44.6-51 51.2-84.2l2.3-11.4c5.2-26 30.5-42.9 56.5-37.7zM32 192H96c17.7 0 32 14.3 32 32V448c0 17.7-14.3 32-32 32H32c-17.7 0-32-14.3-32-32V224c0-17.7 14.3-32 32-32z" />
    </symbol>
    <symbol id="icon-users" viewBox="0 0 640 512">
        <path d="M144 0a80 80 0 1 1 0 160A80 80 0 1 1 144 0zM512 0a80 80 0 1 1 0 160A80 80 0 1 1 512 0zM0 298.7C0 239.8 47.8 192 106.7 192h42.7c15.9 0 31 3.5 44.6 9.7c-1.3 7.2-1.9 14.7-1.9 22.3c0 38.2 16.8 72.5 43.3 96c-.2 0-.4 0-.7 0H21.3C9.6 320 0 310.4 0 298.7zM405.3 320c-.2 0-.4 0-.7 0c26.6-23.5 43.3-57.8 43.3-96c0-7.6-.7-15-1.9-22.3c13.6-6.3 28.7-9.7 44.6-9.7h42.7C592.2 192 640 239.8 640 298.7c0 11.8-9.6 21.3-21.3 21.3H405.3zM224 224a96 96 0 1 1 192 0 96 96 0 1 1 -192 0zM128 485.3C128 411.7 187.7 352 261.3 352H378.7C452.3 352 512 411.7 512 485.3c0 14.7-11.9 26.7-26.7 26.7H154.7c-14.7 0-26.7-11.9-26.7-26.7z" />
    </symbol>
    <symbol id="icon-x-twitter" viewBox="0 0 512 512">
        <path d="M389.2 48h70.6L305.6 224.2 487 464H345L233.7 318.6 106.5 464H35.8L200.7 275.5 26.8 48H172.4L272.9 180.9 389.2 48zM364.4 421.8h39.1L151.1 88h-42L364.4 421.8z" />
    </symbol>
</svg>